<svg width="24" height="23" viewBox="0 0 24 23" fill="none" xmlns="http://www.w3.org/2000/svg">
<path d="M1 11.4762C1 6.53771 1 4.06848 2.6104 2.53371C4.223 1 6.8146 1 12 1C17.1854 1 19.7781 1 21.3885 2.53371C23 4.06952 23 6.53771 23 11.4762" stroke="#6A6768" stroke-width="1.5"/>
<path d="M1 13.5714C1 10.638 1 9.17138 1.5995 8.05043C2.1268 7.06486 2.96815 6.26357 4.003 5.76138C5.18 5.19043 6.72 5.19043 9.8 5.19043H14.2C17.28 5.19043 18.82 5.19043 19.997 5.76138C21.0318 6.26357 21.8732 7.06486 22.4005 8.05043C23 9.17138 23 10.638 23 13.5714C23 16.5047 23 17.9714 22.4005 19.0923C21.8732 20.0779 21.0318 20.8792 19.997 21.3814C18.82 21.9523 17.28 21.9523 14.2 21.9523H9.8C6.72 21.9523 5.18 21.9523 4.003 21.3814C2.96815 20.8792 2.1268 20.0779 1.5995 19.0923C1 17.9714 1 16.5047 1 13.5714Z" stroke="#6A6768" stroke-width="1.5"/>
<path d="M12.131 10.4285V16.7142M12.131 16.7142L14.881 14.0951M12.131 16.7142L9.38095 14.0951" stroke="#6A6768" stroke-width="1.5" stroke-linecap="round" stroke-linejoin="round"/>
</svg>
