<svg width="24" height="24" viewBox="0 0 24 24" fill="none" xmlns="http://www.w3.org/2000/svg">
<path d="M18.9 1.19995C19.9343 1.19995 20.9263 1.61084 21.6577 2.34223C22.3891 3.07363 22.8 4.06561 22.8 5.09995V18.9C22.8 19.9343 22.3891 20.9263 21.6577 21.6577C20.9263 22.3891 19.9343 22.7999 18.9 22.7999H5.1C4.06566 22.7999 3.07368 22.3891 2.34228 21.6577C1.61089 20.9263 1.2 19.9343 1.2 18.9V5.09995C1.2 4.06561 1.61089 3.07363 2.34228 2.34223C3.07368 1.61084 4.06566 1.19995 5.1 1.19995H18.9ZM21 7.79995H3V18.9C3 20.0592 3.9408 20.9999 5.1 20.9999H18.9C19.457 20.9999 19.9911 20.7787 20.3849 20.3849C20.7787 19.991 21 19.4569 21 18.9V7.79995ZM18.9 2.99995H5.1C4.54305 2.99995 4.0089 3.2212 3.61508 3.61503C3.22125 4.00885 3 4.543 3 5.09995V5.99995H21V5.09995C21 4.543 20.7787 4.00885 20.3849 3.61503C19.9911 3.2212 19.457 2.99995 18.9 2.99995Z" fill="#6A6768"/>
<rect x="13" y="13" width="4" height="4" rx="1" stroke="#6A6768" stroke-width="1.2"/>
</svg>
