<svg width="21" height="22" viewBox="0 0 21 22" fill="none" xmlns="http://www.w3.org/2000/svg">
<path d="M20.1097 15.979C19.5333 14.9862 18.6765 12.177 18.6765 8.508C18.6765 6.30457 17.8012 4.19138 16.2431 2.63332C14.6851 1.07526 12.5719 0.199951 10.3685 0.199951C8.16503 0.199951 6.05184 1.07526 4.49378 2.63332C2.93572 4.19138 2.06041 6.30457 2.06041 8.508C2.06041 12.1781 1.2026 14.9862 0.626231 15.979C0.479044 16.2314 0.401014 16.5182 0.400011 16.8104C0.399008 17.1025 0.475067 17.3898 0.620518 17.6432C0.765968 17.8966 0.975667 18.1072 1.22847 18.2537C1.48127 18.4002 1.76823 18.4775 2.06041 18.4777H6.29855C6.49023 19.4156 6.99999 20.2585 7.74159 20.8639C8.4832 21.4693 9.41114 21.7999 10.3685 21.7999C11.3258 21.7999 12.2537 21.4693 12.9953 20.8639C13.7369 20.2585 14.2467 19.4156 14.4384 18.4777H18.6765C18.9686 18.4773 19.2554 18.3999 19.5081 18.2533C19.7607 18.1067 19.9703 17.8961 20.1156 17.6428C20.261 17.3894 20.3369 17.1022 20.3359 16.8101C20.3348 16.518 20.2568 16.2313 20.1097 15.979ZM10.3685 20.1393C9.85317 20.1391 9.3506 19.9793 8.92992 19.6817C8.50924 19.3841 8.19112 18.9635 8.01936 18.4777H12.7176C12.5458 18.9635 12.2277 19.3841 11.807 19.6817C11.3863 19.9793 10.8837 20.1391 10.3685 20.1393ZM2.06041 16.8161C2.86006 15.4411 3.72202 12.2549 3.72202 8.508C3.72202 6.74526 4.42227 5.05471 5.66872 3.80826C6.91517 2.56181 8.60571 1.86156 10.3685 1.86156C12.1312 1.86156 13.8218 2.56181 15.0682 3.80826C16.3147 5.05471 17.0149 6.74526 17.0149 8.508C17.0149 12.2518 17.8748 15.438 18.6765 16.8161H2.06041Z" fill="#6A6768"/>
</svg>
