<svg width="22" height="24" viewBox="0 0 22 24" fill="none" xmlns="http://www.w3.org/2000/svg">
<path d="M10.7333 0C9.13698 0 7.60601 0.632141 6.47722 1.75736C5.34843 2.88258 4.71429 4.4087 4.71429 6C4.71429 7.5913 5.34843 9.11742 6.47722 10.2426C7.60601 11.3679 9.13698 12 10.7333 12C12.3297 12 13.8607 11.3679 14.9894 10.2426C16.1182 9.11742 16.7524 7.5913 16.7524 6C16.7524 4.4087 16.1182 2.88258 14.9894 1.75736C13.8607 0.632141 12.3297 0 10.7333 0ZM6.21905 6C6.21905 4.80653 6.69466 3.66193 7.54125 2.81802C8.38784 1.97411 9.53607 1.5 10.7333 1.5C11.9306 1.5 13.0788 1.97411 13.9254 2.81802C14.772 3.66193 15.2476 4.80653 15.2476 6C15.2476 7.19347 14.772 8.33807 13.9254 9.18198C13.0788 10.0259 11.9306 10.5 10.7333 10.5C9.53607 10.5 8.38784 10.0259 7.54125 9.18198C6.69466 8.33807 6.21905 7.19347 6.21905 6ZM3.22307 13.5C2.82677 13.4984 2.43405 13.5748 2.06745 13.7249C1.70084 13.8749 1.36755 14.0956 1.0867 14.3743C0.805839 14.6531 0.58294 14.9843 0.430781 15.3491C0.278621 15.7138 0.200196 16.105 0.200001 16.5C0.200001 19.0365 1.45347 20.949 3.41267 22.1955C5.34177 23.421 7.942 24 10.7333 24C13.5247 24 16.1249 23.421 18.054 22.1955C20.0132 20.9505 21.2667 19.035 21.2667 16.5C21.2667 15.7044 20.9496 14.9413 20.3852 14.3787C19.8208 13.8161 19.0553 13.5 18.2571 13.5H3.22307ZM1.70476 16.5C1.70476 15.6705 2.3789 15 3.22307 15H18.2571C18.6562 15 19.039 15.158 19.3212 15.4393C19.6034 15.7206 19.7619 16.1022 19.7619 16.5C19.7619 18.4635 18.8259 19.926 17.2444 20.9295C15.6343 21.954 13.3441 22.5 10.7333 22.5C8.12257 22.5 5.83232 21.954 4.22223 20.9295C2.64223 19.9245 1.70476 18.465 1.70476 16.5Z" fill="#6A6768"/>
</svg>
