<svg width="24" height="24" viewBox="0 0 24 24" fill="none" xmlns="http://www.w3.org/2000/svg">
<path fill-rule="evenodd" clip-rule="evenodd" d="M6.27722 1.75736C7.40601 0.632141 8.93698 0 10.5333 0C12.1297 0 13.6607 0.632141 14.7894 1.75736C15.9182 2.88258 16.5524 4.4087 16.5524 6C16.5524 7.5913 15.9182 9.11742 14.7894 10.2426C13.6607 11.3679 12.1297 12 10.5333 12C8.93698 12 7.40601 11.3679 6.27722 10.2426C5.14843 9.11742 4.51429 7.5913 4.51429 6C4.51429 4.4087 5.14843 2.88258 6.27722 1.75736ZM7.34125 2.81802C6.49466 3.66193 6.01905 4.80653 6.01905 6C6.01905 7.19347 6.49466 8.33807 7.34125 9.18198C8.18784 10.0259 9.33607 10.5 10.5333 10.5C11.7306 10.5 12.8788 10.0259 13.7254 9.18198C14.572 8.33807 15.0476 7.19347 15.0476 6C15.0476 4.80653 14.572 3.66193 13.7254 2.81802C12.8788 1.97411 11.7306 1.5 10.5333 1.5C9.33607 1.5 8.18784 1.97411 7.34125 2.81802ZM1.86745 13.7249C2.23405 13.5748 2.62677 13.4984 3.02307 13.5H13.5953C13.1594 13.9234 12.8071 14.4325 12.5655 15H3.02307C2.17889 15 1.50476 15.6705 1.50476 16.5C1.50476 18.465 2.44223 19.9245 4.02223 20.9295C5.63232 21.954 7.92257 22.5 10.5333 22.5C12.7426 22.5 14.7223 22.109 16.2546 21.368C16.4334 21.3891 16.6154 21.4 16.8 21.4C17.5511 21.4 18.2602 21.22 18.8865 20.9007L19.1525 21.1667C18.7669 21.549 18.3314 21.8921 17.854 22.1955C15.9249 23.421 13.3247 24 10.5333 24C7.742 24 5.14177 23.421 3.21267 22.1955C1.25347 20.949 0 19.0365 0 16.5C0.000194885 16.105 0.0786206 15.7138 0.23078 15.3491C0.382939 14.9843 0.605838 14.6531 0.886695 14.3743C1.16755 14.0956 1.50084 13.8749 1.86745 13.7249ZM18.8864 15.2483C18.4125 14.6121 17.6544 14.2 16.8 14.2C16.0627 14.2 15.397 14.5069 14.9238 15H18.0571C18.3542 15 18.6422 15.0876 18.8864 15.2483Z" fill="#6A6768"/>
<path d="M19.2 19.8L22.2 22.8M20.4 16.8C20.4 18.7882 18.7882 20.4 16.8 20.4C14.8118 20.4 13.2 18.7882 13.2 16.8C13.2 14.8117 14.8118 13.2 16.8 13.2C18.7882 13.2 20.4 14.8117 20.4 16.8Z" stroke="#6A6768" stroke-width="1.2" stroke-linecap="round"/>
</svg>
