<svg width="23" height="23" viewBox="0 0 23 23" fill="none" xmlns="http://www.w3.org/2000/svg">
<path d="M4.17647 5.37815C4.17647 3.95178 4.7431 2.58382 5.7517 1.57522C6.76029 0.566625 8.12825 0 9.55462 0C10.981 0 12.349 0.566625 13.3576 1.57522C14.3661 2.58382 14.9328 3.95178 14.9328 5.37815C14.9328 6.80453 14.3661 8.17248 13.3576 9.18108C12.349 10.1897 10.981 10.7563 9.55462 10.7563C8.12825 10.7563 6.76029 10.1897 5.7517 9.18108C4.7431 8.17248 4.17647 6.80453 4.17647 5.37815ZM9.55462 1.34454C8.48484 1.34454 7.45888 1.76951 6.70243 2.52596C5.94598 3.28241 5.52101 4.30837 5.52101 5.37815C5.52101 6.44793 5.94598 7.4739 6.70243 8.23035C7.45888 8.9868 8.48484 9.41177 9.55462 9.41177C10.6244 9.41177 11.6504 8.9868 12.4068 8.23035C13.1633 7.4739 13.5882 6.44793 13.5882 5.37815C13.5882 4.30837 13.1633 3.28241 12.4068 2.52596C11.6504 1.76951 10.6244 1.34454 9.55462 1.34454ZM0.142857 14.7899C0.142857 13.2934 1.35697 12.1008 2.84403 12.1008H11.2447C10.9023 12.5156 10.6061 12.9664 10.3613 13.4454H2.84403C2.08975 13.4454 1.48739 14.0464 1.48739 14.7899C1.48739 16.5499 2.3237 17.8608 3.73681 18.7603C5.17546 19.6787 7.22185 20.1681 9.55462 20.1681C9.82353 20.1681 10.0897 20.1613 10.3506 20.1479C10.5832 20.6077 10.8629 21.038 11.1815 21.436C10.6504 21.4871 10.1059 21.5126 9.55462 21.5126C7.0605 21.5126 4.73714 20.9936 3.01345 19.8951C1.26286 18.7792 0.142857 17.0622 0.142857 14.7899ZM23 16.8067C23 18.4114 22.3625 19.9503 21.2279 21.085C20.0932 22.2197 18.5543 22.8571 16.9496 22.8571C15.3449 22.8571 13.806 22.2197 12.6713 21.085C11.5366 19.9503 10.8992 18.4114 10.8992 16.8067C10.8992 15.2021 11.5366 13.6631 12.6713 12.5284C13.806 11.3938 15.3449 10.7563 16.9496 10.7563C18.5543 10.7563 20.0932 11.3938 21.2279 12.5284C22.3625 13.6631 23 15.2021 23 16.8067ZM20.1146 14.314C20.0522 14.2513 19.978 14.2017 19.8963 14.1678C19.8146 14.1339 19.7271 14.1164 19.6387 14.1164C19.5502 14.1164 19.4627 14.1339 19.381 14.1678C19.2993 14.2017 19.2251 14.2513 19.1627 14.314L15.605 17.8729L14.7365 17.003C14.6102 16.8768 14.439 16.8059 14.2605 16.8059C14.082 16.8059 13.9108 16.8768 13.7845 17.003C13.6583 17.1293 13.5874 17.3005 13.5874 17.479C13.5874 17.6575 13.6583 17.8287 13.7845 17.955L15.1291 19.2995C15.1915 19.3621 15.2657 19.4118 15.3474 19.4457C15.4291 19.4796 15.5166 19.497 15.605 19.497C15.6935 19.497 15.781 19.4796 15.8627 19.4457C15.9444 19.4118 16.0186 19.3621 16.081 19.2995L20.1146 15.2659C20.1772 15.2034 20.2269 15.1293 20.2608 15.0476C20.2947 14.9659 20.3121 14.8783 20.3121 14.7899C20.3121 14.7015 20.2947 14.6139 20.2608 14.5323C20.2269 14.4506 20.1772 14.3764 20.1146 14.314Z" fill="#6A6768"/>
</svg>
