<svg width="20" height="20" viewBox="0 0 20 20" fill="none" xmlns="http://www.w3.org/2000/svg">
<path d="M17.7548 16.394L14.1277 12.7669C15.0009 11.6043 15.4723 10.1893 15.4707 8.73536C15.4707 5.02151 12.4492 2 8.73536 2C5.02151 2 2 5.02151 2 8.73536C2 12.4492 5.02151 15.4707 8.73536 15.4707C10.1893 15.4723 11.6043 15.0009 12.7669 14.1277L16.394 17.7548C16.5776 17.9189 16.8171 18.0065 17.0632 17.9996C17.3094 17.9927 17.5436 17.8919 17.7177 17.7177C17.8919 17.5436 17.9927 17.3094 17.9996 17.0632C18.0065 16.8171 17.9189 16.5776 17.7548 16.394ZM3.92439 8.73536C3.92439 7.78384 4.20655 6.85369 4.73518 6.06253C5.26382 5.27137 6.01519 4.65473 6.89428 4.2906C7.77337 3.92647 8.7407 3.8312 9.67393 4.01683C10.6072 4.20246 11.4644 4.66066 12.1372 5.33349C12.8101 6.00632 13.2683 6.86355 13.4539 7.79679C13.6395 8.73002 13.5442 9.69735 13.1801 10.5764C12.816 11.4555 12.1994 12.2069 11.4082 12.7355C10.617 13.2642 9.68688 13.5463 8.73536 13.5463C7.45988 13.5448 6.23708 13.0374 5.33518 12.1355C4.43328 11.2336 3.92592 10.0108 3.92439 8.73536Z" fill="#E0DCDA"/>
</svg>
