<svg width="25" height="26" viewBox="0 0 25 26" fill="none" xmlns="http://www.w3.org/2000/svg">
<path fill-rule="evenodd" clip-rule="evenodd" d="M2.48645 5.73646C2.48645 3.94154 3.94152 2.48647 5.73645 2.48647H15.5993C16.0135 2.48647 16.3493 2.15068 16.3493 1.73647C16.3493 1.32225 16.0135 0.986465 15.5993 0.986465H5.73645C3.1131 0.986465 0.98645 3.11311 0.98645 5.73646V20.2635C0.98645 22.8869 3.11309 25.0135 5.73645 25.0135H15.5993C16.0135 25.0135 16.3493 24.6778 16.3493 24.2635C16.3493 23.8493 16.0135 23.5135 15.5993 23.5135H5.73645C3.94152 23.5135 2.48645 22.0585 2.48645 20.2635V5.73646ZM8.13753 12.4697C7.84464 12.7626 7.84464 13.2374 8.13753 13.5303L12.9105 18.3033C13.2034 18.5962 13.6783 18.5962 13.9712 18.3033C14.2641 18.0104 14.2641 17.5355 13.9712 17.2426L10.4785 13.75H20.7978C21.212 13.75 21.5478 13.4142 21.5478 13C21.5478 12.5858 21.212 12.25 20.7978 12.25H10.4785L13.9712 8.75736C14.2641 8.46447 14.2641 7.9896 13.9712 7.6967C13.6783 7.40381 13.2034 7.40381 12.9105 7.6967L8.13753 12.4697Z" fill="#E0DCDA"/>
</svg>
