<svg width="24" height="24" viewBox="0 0 24 24" fill="none" xmlns="http://www.w3.org/2000/svg">
<path d="M12.3599 4C6.57989 4 2.64389 9.857 4.82389 15.21L5.75689 17.498C5.79763 17.5978 5.80504 17.7081 5.77801 17.8124C5.75098 17.9167 5.69096 18.0095 5.60689 18.077L3.63389 19.66C3.55311 19.7248 3.49445 19.8131 3.46601 19.9127C3.43756 20.0122 3.44074 20.1182 3.4751 20.2159C3.50945 20.3136 3.5733 20.3982 3.65781 20.458C3.74232 20.5179 3.84333 20.55 3.94689 20.55H11.7669C12.9137 20.5501 14.0493 20.3244 15.1088 19.8856C16.1683 19.4468 17.131 18.8037 17.942 17.9928C18.7529 17.182 19.3962 16.2193 19.8351 15.1598C20.274 14.1003 20.4999 12.9648 20.4999 11.818C20.4999 7.5 16.9999 4 12.6819 4H12.3609H12.3599Z" fill="#FDF8F5"/>
</svg>
