<svg width="24" height="24" viewBox="0 0 24 24" fill="none" xmlns="http://www.w3.org/2000/svg">
<path d="M20.27 16.265L20.975 12.185C21.0163 11.9459 21.005 11.7006 20.9416 11.4663C20.8783 11.232 20.7646 11.0144 20.6084 10.8287C20.4522 10.6429 20.2573 10.4936 20.0373 10.391C19.8173 10.2885 19.5776 10.2352 19.335 10.235H14.154C14.033 10.235 13.9136 10.2087 13.8039 10.1579C13.6941 10.1071 13.5968 10.0331 13.5186 9.94086C13.4403 9.84865 13.3831 9.74052 13.3509 9.62398C13.3187 9.50744 13.3122 9.38528 13.332 9.26599L13.995 5.22099C14.1025 4.56423 14.0719 3.89224 13.905 3.24799C13.8335 2.98179 13.696 2.73797 13.505 2.53919C13.3141 2.34041 13.0761 2.19311 12.813 2.11099L12.668 2.06399C12.3401 1.95868 11.9844 1.98302 11.674 2.13199C11.334 2.29599 11.086 2.59499 10.994 2.94999L10.518 4.78399C10.3664 5.36762 10.1462 5.93122 9.86196 6.46299C9.44696 7.23999 8.80496 7.86299 8.13696 8.43799L6.69796 9.67799C6.49833 9.8505 6.34241 10.0679 6.24299 10.3123C6.14356 10.5566 6.10346 10.8211 6.12596 11.084L6.93796 20.477C6.97375 20.8924 7.164 21.2793 7.47115 21.5613C7.7783 21.8432 8.18001 21.9998 8.59696 22H13.245C16.727 22 19.698 19.574 20.27 16.265Z" fill="#FDF8F5"/>
<path fill-rule="evenodd" clip-rule="evenodd" d="M2.96808 9.485C3.16134 9.47655 3.35039 9.5431 3.49574 9.67075C3.64109 9.7984 3.7315 9.97727 3.74808 10.17L4.71808 21.406C4.73451 21.5733 4.71666 21.7422 4.66562 21.9024C4.61458 22.0626 4.53142 22.2107 4.42122 22.3377C4.31102 22.4647 4.17609 22.5678 4.02468 22.6409C3.87327 22.714 3.70855 22.7555 3.54058 22.7627C3.37261 22.77 3.20492 22.743 3.04775 22.6833C2.89058 22.6236 2.74723 22.5325 2.62646 22.4155C2.50568 22.2985 2.41002 22.1582 2.3453 22.003C2.28059 21.8479 2.24819 21.6811 2.25008 21.513V10.234C2.25016 10.0407 2.32488 9.85486 2.45866 9.71531C2.59244 9.57576 2.77494 9.49325 2.96808 9.485Z" fill="#FDF8F5"/>
</svg>
