<svg width="24" height="24" viewBox="0 0 24 24" fill="none" xmlns="http://www.w3.org/2000/svg">
<path d="M1 12.4762C1 7.53771 1 5.06848 2.6104 3.53371C4.223 2 6.8146 2 12 2C17.1854 2 19.7781 2 21.3885 3.53371C23 5.06952 23 7.53771 23 12.4762" stroke="#E0DCDA" stroke-width="1.5"/>
<path d="M1 14.5714C1 11.6381 1 10.1714 1.5995 9.05048C2.1268 8.06491 2.96815 7.26361 4.003 6.76143C5.18 6.19048 6.72 6.19048 9.8 6.19048H14.2C17.28 6.19048 18.82 6.19048 19.997 6.76143C21.0318 7.26361 21.8732 8.06491 22.4005 9.05048C23 10.1714 23 11.6381 23 14.5714C23 17.5048 23 18.9714 22.4005 20.0924C21.8732 21.0779 21.0318 21.8792 19.997 22.3814C18.82 22.9524 17.28 22.9524 14.2 22.9524H9.8C6.72 22.9524 5.18 22.9524 4.003 22.3814C2.96815 21.8792 2.1268 21.0779 1.5995 20.0924C1 18.9714 1 17.5048 1 14.5714Z" stroke="#E0DCDA" stroke-width="1.5"/>
<path d="M12.131 11.4286V17.7143M12.131 17.7143L14.881 15.0952M12.131 17.7143L9.38098 15.0952" stroke="#E0DCDA" stroke-width="1.5" stroke-linecap="round" stroke-linejoin="round"/>
</svg>
