<svg width="42" height="42" viewBox="0 0 42 42" fill="none" xmlns="http://www.w3.org/2000/svg">
<g filter="url(#filter0_d_1336_34698)">
<rect x="9" y="9" width="24" height="24" rx="12" fill="#0A0605" shape-rendering="crispEdges"/>
<path d="M20.5388 22.1683C20.734 21.9731 20.734 21.6565 20.5388 21.4612C20.3435 21.266 20.0269 21.266 19.8317 21.4612L20.5388 22.1683ZM14.5 27C14.5 27.2761 14.7239 27.5 15 27.5L19.5 27.5C19.7761 27.5 20 27.2761 20 27C20 26.7239 19.7761 26.5 19.5 26.5L15.5 26.5L15.5 22.5C15.5 22.2239 15.2761 22 15 22C14.7239 22 14.5 22.2239 14.5 22.5L14.5 27ZM21.4612 19.8317C21.266 20.0269 21.266 20.3435 21.4612 20.5388C21.6565 20.734 21.9731 20.734 22.1683 20.5388L21.4612 19.8317ZM27.5 15C27.5 14.7239 27.2761 14.5 27 14.5L22.5 14.5C22.2239 14.5 22 14.7239 22 15C22 15.2761 22.2239 15.5 22.5 15.5L26.5 15.5L26.5 19.5C26.5 19.7761 26.7239 20 27 20C27.2761 20 27.5 19.7761 27.5 19.5L27.5 15ZM19.8317 21.4612L14.6464 26.6464L15.3536 27.3536L20.5388 22.1683L19.8317 21.4612ZM22.1683 20.5388L27.3536 15.3536L26.6464 14.6464L21.4612 19.8317L22.1683 20.5388Z" fill="#E0DCDA"/>
<rect x="8.5" y="8.5" width="25" height="25" rx="12.5" stroke="#FDF8F5" shape-rendering="crispEdges"/>
</g>
<defs>
<filter id="filter0_d_1336_34698" x="0" y="0" width="42" height="42" filterUnits="userSpaceOnUse" color-interpolation-filters="sRGB">
<feFlood flood-opacity="0" result="BackgroundImageFix"/>
<feColorMatrix in="SourceAlpha" type="matrix" values="0 0 0 0 0 0 0 0 0 0 0 0 0 0 0 0 0 0 127 0" result="hardAlpha"/>
<feOffset/>
<feGaussianBlur stdDeviation="4"/>
<feComposite in2="hardAlpha" operator="out"/>
<feColorMatrix type="matrix" values="0 0 0 0 0.203922 0 0 0 0 0.2 0 0 0 0 0.2 0 0 0 0.1 0"/>
<feBlend mode="normal" in2="BackgroundImageFix" result="effect1_dropShadow_1336_34698"/>
<feBlend mode="normal" in="SourceGraphic" in2="effect1_dropShadow_1336_34698" result="shape"/>
</filter>
</defs>
</svg>
