<svg width="28" height="28" viewBox="0 0 28 28" fill="none" xmlns="http://www.w3.org/2000/svg">
<g clip-path="url(#clip0_1350_32372)">
<path fill-rule="evenodd" clip-rule="evenodd" d="M23.3333 1.98333H4.66667C3.1847 1.98333 1.98333 3.1847 1.98333 4.66667V23.3333C1.98333 24.8153 3.1847 26.0167 4.66667 26.0167H23.3333C24.8153 26.0167 26.0167 24.8153 26.0167 23.3333V4.66667C26.0167 3.1847 24.8153 1.98333 23.3333 1.98333ZM4.66667 0C2.08934 0 0 2.08934 0 4.66667V23.3333C0 25.9107 2.08934 28 4.66667 28H23.3333C25.9107 28 28 25.9107 28 23.3333V4.66667C28 2.08934 25.9107 0 23.3333 0H4.66667Z" fill="#E0DCDA"/>
<path fill-rule="evenodd" clip-rule="evenodd" d="M8.16667 18.6667H5.83333V21H8.16667V18.6667ZM5.83333 17.5C5.189 17.5 4.66667 18.0223 4.66667 18.6667V21C4.66667 21.6443 5.189 22.1667 5.83333 22.1667H8.16667C8.811 22.1667 9.33333 21.6443 9.33333 21V18.6667C9.33333 18.0223 8.811 17.5 8.16667 17.5H5.83333Z" fill="#E0DCDA"/>
<path fill-rule="evenodd" clip-rule="evenodd" d="M8.16667 12.8333H5.83333V15.1667H8.16667V12.8333ZM5.83333 11.6667C5.189 11.6667 4.66667 12.189 4.66667 12.8333V15.1667C4.66667 15.811 5.189 16.3333 5.83333 16.3333H8.16667C8.811 16.3333 9.33333 15.811 9.33333 15.1667V12.8333C9.33333 12.189 8.811 11.6667 8.16667 11.6667H5.83333Z" fill="#E0DCDA"/>
<path fill-rule="evenodd" clip-rule="evenodd" d="M15.1667 18.6667H12.8333V21H15.1667V18.6667ZM12.8333 17.5C12.189 17.5 11.6667 18.0223 11.6667 18.6667V21C11.6667 21.6443 12.189 22.1667 12.8333 22.1667H15.1667C15.811 22.1667 16.3333 21.6443 16.3333 21V18.6667C16.3333 18.0223 15.811 17.5 15.1667 17.5H12.8333Z" fill="#E0DCDA"/>
<path fill-rule="evenodd" clip-rule="evenodd" d="M22.1667 18.6667H19.8333V21H22.1667V18.6667ZM19.8333 17.5C19.189 17.5 18.6667 18.0223 18.6667 18.6667V21C18.6667 21.6443 19.189 22.1667 19.8333 22.1667H22.1667C22.811 22.1667 23.3333 21.6443 23.3333 21V18.6667C23.3333 18.0223 22.811 17.5 22.1667 17.5H19.8333Z" fill="#E0DCDA"/>
<path fill-rule="evenodd" clip-rule="evenodd" d="M28 8.16667H1.16667V6.18333H28V8.16667Z" fill="#E0DCDA"/>
</g>
<defs>
<clipPath id="clip0_1350_32372">
<rect width="28" height="28" fill="white"/>
</clipPath>
</defs>
</svg>
