<svg width="24" height="24" viewBox="0 0 24 24" fill="none" xmlns="http://www.w3.org/2000/svg">
<path d="M22.0746 17.0713C21.4876 16.0601 20.615 13.1989 20.615 9.4619C20.615 7.21767 19.7234 5.06535 18.1365 3.47843C16.5496 1.89152 14.3973 1 12.1531 1C9.90882 1 7.7565 1.89152 6.16959 3.47843C4.58267 5.06535 3.69116 7.21767 3.69116 9.4619C3.69116 13.1999 2.81746 16.0601 2.23042 17.0713C2.08051 17.3283 2.00103 17.6204 2.00001 17.918C1.99899 18.2156 2.07646 18.5082 2.2246 18.7663C2.37274 19.0244 2.58633 19.2389 2.84381 19.3881C3.10129 19.5373 3.39356 19.616 3.69116 19.6162H8.00778C8.20301 20.5715 8.72221 21.43 9.47755 22.0466C10.2329 22.6632 11.178 23 12.1531 23C13.1281 23 14.0732 22.6632 14.8286 22.0466C15.5839 21.43 16.1031 20.5715 16.2983 19.6162H20.615C20.9125 19.6158 21.2046 19.537 21.4619 19.3877C21.7193 19.2384 21.9327 19.0239 22.0807 18.7658C22.2287 18.5078 22.3061 18.2152 22.3051 17.9177C22.304 17.6202 22.2245 17.3283 22.0746 17.0713ZM12.1531 21.3086C11.6282 21.3084 11.1164 21.1456 10.6879 20.8425C10.2594 20.5394 9.9354 20.111 9.76046 19.6162H14.5457C14.3707 20.111 14.0467 20.5394 13.6182 20.8425C13.1898 21.1456 12.6779 21.3084 12.1531 21.3086ZM3.69116 17.9238C4.50561 16.5234 5.38354 13.2782 5.38354 9.4619C5.38354 7.66651 6.09675 5.94466 7.36628 4.67513C8.63582 3.4056 10.3577 2.69238 12.1531 2.69238C13.9484 2.69238 15.6703 3.4056 16.9398 4.67513C18.2094 5.94466 18.9226 7.66651 18.9226 9.4619C18.9226 13.275 19.7984 16.5202 20.615 17.9238H3.69116Z" fill="#E0DCDA"/>
</svg>
