<svg width="24" height="24" viewBox="0 0 24 24" fill="none" xmlns="http://www.w3.org/2000/svg">
<path d="M11.7333 0C10.1369 0 8.60596 0.632141 7.47717 1.75736C6.34838 2.88258 5.71424 4.4087 5.71424 6C5.71424 7.5913 6.34838 9.11742 7.47717 10.2426C8.60596 11.3679 10.1369 12 11.7333 12C13.3296 12 14.8606 11.3679 15.9894 10.2426C17.1182 9.11742 17.7523 7.5913 17.7523 6C17.7523 4.4087 17.1182 2.88258 15.9894 1.75736C14.8606 0.632141 13.3296 0 11.7333 0ZM7.219 6C7.219 4.80653 7.69461 3.66193 8.5412 2.81802C9.38779 1.97411 10.536 1.5 11.7333 1.5C12.9305 1.5 14.0788 1.97411 14.9254 2.81802C15.772 3.66193 16.2476 4.80653 16.2476 6C16.2476 7.19347 15.772 8.33807 14.9254 9.18198C14.0788 10.0259 12.9305 10.5 11.7333 10.5C10.536 10.5 9.38779 10.0259 8.5412 9.18198C7.69461 8.33807 7.219 7.19347 7.219 6ZM4.22302 13.5C3.82672 13.4984 3.434 13.5748 3.0674 13.7249C2.70079 13.8749 2.3675 14.0956 2.08665 14.3743C1.80579 14.6531 1.58289 14.9843 1.43073 15.3491C1.27857 15.7138 1.20015 16.105 1.19995 16.5C1.19995 19.0365 2.45342 20.949 4.41262 22.1955C6.34172 23.421 8.94195 24 11.7333 24C14.5246 24 17.1248 23.421 19.054 22.1955C21.0132 20.9505 22.2666 19.035 22.2666 16.5C22.2666 15.7044 21.9495 14.9413 21.3851 14.3787C20.8208 13.8161 20.0553 13.5 19.2571 13.5H4.22302ZM2.70471 16.5C2.70471 15.6705 3.37885 15 4.22302 15H19.2571C19.6562 15 20.0389 15.158 20.3211 15.4393C20.6033 15.7206 20.7619 16.1022 20.7619 16.5C20.7619 18.4635 19.8259 19.926 18.2444 20.9295C16.6343 21.954 14.344 22.5 11.7333 22.5C9.12252 22.5 6.83227 21.954 5.22218 20.9295C3.64218 19.9245 2.70471 18.465 2.70471 16.5Z" fill="#E0DCDA"/>
</svg>
