<svg width="25" height="26" viewBox="0 0 25 26" fill="none" xmlns="http://www.w3.org/2000/svg">
<path fill-rule="evenodd" clip-rule="evenodd" d="M2.48645 5.73646C2.48645 3.94154 3.94152 2.48647 5.73645 2.48647H15.5993C16.0135 2.48647 16.3493 2.15068 16.3493 1.73647C16.3493 1.32225 16.0135 0.986465 15.5993 0.986465H5.73645C3.1131 0.986465 0.98645 3.11311 0.98645 5.73646V20.2635C0.98645 22.8869 3.11309 25.0135 5.73645 25.0135H15.5993C16.0135 25.0135 16.3493 24.6778 16.3493 24.2635C16.3493 23.8493 16.0135 23.5135 15.5993 23.5135H5.73645C3.94152 23.5135 2.48645 22.0585 2.48645 20.2635V5.73646ZM21.3282 12.4697L16.5552 7.6967C16.2623 7.40381 15.7874 7.40381 15.4945 7.6967C15.2016 7.9896 15.2016 8.46447 15.4945 8.75736L18.9872 12.25H8.66786C8.25364 12.25 7.91786 12.5858 7.91786 13C7.91786 13.4142 8.25364 13.75 8.66786 13.75H18.9872L15.4945 17.2426C15.2016 17.5355 15.2016 18.0104 15.4945 18.3033C15.7874 18.5962 16.2623 18.5962 16.5552 18.3033L21.3282 13.5303C21.621 13.2374 21.621 12.7626 21.3282 12.4697Z" fill="#E0DCDA"/>
</svg>
