<svg width="29" height="30" viewBox="0 0 29 30" fill="none" xmlns="http://www.w3.org/2000/svg">
<path fill-rule="evenodd" clip-rule="evenodd" d="M2.73413 6.52588C2.73413 4.43181 4.43172 2.73422 6.5258 2.73422H18.0324C18.5157 2.73422 18.9074 2.34247 18.9074 1.85922C18.9074 1.37597 18.5157 0.984222 18.0324 0.984222H6.5258C3.46522 0.984222 0.984131 3.4653 0.984131 6.52588V23.4741C0.984131 26.5347 3.46522 29.0158 6.52579 29.0158H18.0324C18.5157 29.0158 18.9074 28.6241 18.9074 28.1408C18.9074 27.6576 18.5157 27.2658 18.0324 27.2658H6.52579C4.43172 27.2658 2.73413 25.5682 2.73413 23.4741V6.52588ZM9.32705 14.3813C8.98535 14.723 8.98535 15.277 9.32705 15.6187L14.8955 21.1872C15.2372 21.5289 15.7912 21.5289 16.133 21.1872C16.4747 20.8455 16.4747 20.2915 16.133 19.9498L12.0582 15.875H24.0974C24.5806 15.875 24.9724 15.4833 24.9724 15C24.9724 14.5168 24.5806 14.125 24.0974 14.125H12.0582L16.133 10.0503C16.4747 9.70856 16.4747 9.15454 16.133 8.81283C15.7912 8.47112 15.2372 8.47112 14.8955 8.81283L9.32705 14.3813Z" fill="#E0DCDA"/>
</svg>
