<svg width="24" height="24" viewBox="0 0 24 24" fill="none" xmlns="http://www.w3.org/2000/svg">
<path fill-rule="evenodd" clip-rule="evenodd" d="M4.59195 15.304C2.34395 9.787 6.40296 3.75 12.36 3.75H12.681C13.7405 3.75 14.7896 3.95869 15.7684 4.36414C16.7473 4.7696 17.6367 5.36388 18.3859 6.11306C19.1351 6.86225 19.7294 7.75166 20.1348 8.73051C20.5403 9.70936 20.749 10.7585 20.749 11.818C20.749 14.2002 19.8026 16.4848 18.1182 18.1692C16.4337 19.8537 14.1491 20.8 11.767 20.8H3.94695C3.79158 20.8001 3.63999 20.752 3.51314 20.6623C3.38629 20.5725 3.29045 20.4456 3.23885 20.2991C3.18725 20.1525 3.18245 19.9935 3.2251 19.8441C3.26775 19.6947 3.35576 19.5622 3.47695 19.465L5.44795 17.882C5.4901 17.8482 5.52018 17.8018 5.5337 17.7495C5.54722 17.6972 5.54345 17.642 5.52295 17.592L4.59195 15.304ZM12.36 5.25C7.46695 5.25 4.13396 10.207 5.97995 14.738L6.91196 17.027C7.05396 17.3759 7.07957 17.7614 6.98498 18.126C6.89039 18.4907 6.68066 18.8151 6.38696 19.051L6.07796 19.3H11.767C13.7513 19.3 15.6544 18.5117 17.0575 17.1086C18.4607 15.7054 19.249 13.8023 19.249 11.818C19.249 10.0761 18.557 8.40546 17.3252 7.17372C16.0935 5.94198 14.4229 5.25 12.681 5.25H12.36Z" fill="#FDF8F5"/>
</svg>
