<svg width="25" height="26" viewBox="0 0 25 26" fill="none" xmlns="http://www.w3.org/2000/svg">
<path fill-rule="evenodd" clip-rule="evenodd" d="M2.48647 5.73647C2.48647 3.94155 3.94155 2.48647 5.73647 2.48647H15.5993C16.0135 2.48647 16.3493 2.15069 16.3493 1.73647C16.3493 1.32226 16.0135 0.986475 15.5993 0.986475H5.73647C3.11312 0.986475 0.986475 3.11312 0.986475 5.73647V20.2635C0.986475 22.8869 3.11312 25.0135 5.73647 25.0135H15.5993C16.0135 25.0135 16.3493 24.6778 16.3493 24.2635C16.3493 23.8493 16.0135 23.5135 15.5993 23.5135H5.73647C3.94155 23.5135 2.48647 22.0585 2.48647 20.2635V5.73647ZM8.13755 12.4697C7.84466 12.7626 7.84466 13.2374 8.13755 13.5303L12.9105 18.3033C13.2034 18.5962 13.6783 18.5962 13.9712 18.3033C14.2641 18.0104 14.2641 17.5355 13.9712 17.2427L10.4785 13.75H20.7978C21.2121 13.75 21.5478 13.4142 21.5478 13C21.5478 12.5858 21.2121 12.25 20.7978 12.25H10.4785L13.9712 8.75737C14.2641 8.46448 14.2641 7.9896 13.9712 7.69671C13.6783 7.40382 13.2034 7.40382 12.9105 7.69671L8.13755 12.4697Z" fill="#514642"/>
</svg>
