<svg width="40" height="40" viewBox="0 0 40 40" fill="none" xmlns="http://www.w3.org/2000/svg">
<g filter="url(#filter0_d_1078_13152)">
<rect x="8" y="8" width="24" height="24" rx="12" fill="#FFFBFA" shape-rendering="crispEdges"/>
<path d="M19.5388 21.1683C19.734 20.9731 19.734 20.6565 19.5388 20.4612C19.3435 20.266 19.0269 20.266 18.8317 20.4612L19.5388 21.1683ZM13.5 26C13.5 26.2761 13.7239 26.5 14 26.5L18.5 26.5C18.7761 26.5 19 26.2761 19 26C19 25.7239 18.7761 25.5 18.5 25.5L14.5 25.5L14.5 21.5C14.5 21.2239 14.2761 21 14 21C13.7239 21 13.5 21.2239 13.5 21.5L13.5 26ZM20.4612 18.8317C20.266 19.0269 20.266 19.3435 20.4612 19.5388C20.6565 19.734 20.9731 19.734 21.1683 19.5388L20.4612 18.8317ZM26.5 14C26.5 13.7239 26.2761 13.5 26 13.5L21.5 13.5C21.2239 13.5 21 13.7239 21 14C21 14.2761 21.2239 14.5 21.5 14.5L25.5 14.5L25.5 18.5C25.5 18.7761 25.7239 19 26 19C26.2761 19 26.5 18.7761 26.5 18.5L26.5 14ZM18.8317 20.4612L13.6464 25.6464L14.3536 26.3536L19.5388 21.1683L18.8317 20.4612ZM21.1683 19.5388L26.3536 14.3536L25.6464 13.6464L20.4612 18.8317L21.1683 19.5388Z" fill="#514642"/>
</g>
<defs>
<filter id="filter0_d_1078_13152" x="0" y="0" width="40" height="40" filterUnits="userSpaceOnUse" color-interpolation-filters="sRGB">
<feFlood flood-opacity="0" result="BackgroundImageFix"/>
<feColorMatrix in="SourceAlpha" type="matrix" values="0 0 0 0 0 0 0 0 0 0 0 0 0 0 0 0 0 0 127 0" result="hardAlpha"/>
<feOffset/>
<feGaussianBlur stdDeviation="4"/>
<feComposite in2="hardAlpha" operator="out"/>
<feColorMatrix type="matrix" values="0 0 0 0 0.203922 0 0 0 0 0.2 0 0 0 0 0.2 0 0 0 0.1 0"/>
<feBlend mode="normal" in2="BackgroundImageFix" result="effect1_dropShadow_1078_13152"/>
<feBlend mode="normal" in="SourceGraphic" in2="effect1_dropShadow_1078_13152" result="shape"/>
</filter>
</defs>
</svg>
