<svg width="26" height="26" viewBox="0 0 26 26" fill="none" xmlns="http://www.w3.org/2000/svg">
<rect x="0.5" y="0.5" width="25" height="25" rx="12.5" fill="#FFFBFA"/>
<path d="M12.5388 14.1683C12.734 13.9731 12.734 13.6565 12.5388 13.4612C12.3435 13.266 12.0269 13.266 11.8317 13.4612L12.5388 14.1683ZM6.5 19C6.5 19.2761 6.72386 19.5 7 19.5L11.5 19.5C11.7761 19.5 12 19.2761 12 19C12 18.7239 11.7761 18.5 11.5 18.5L7.5 18.5L7.5 14.5C7.5 14.2239 7.27614 14 7 14C6.72386 14 6.5 14.2239 6.5 14.5L6.5 19ZM13.4612 11.8317C13.266 12.0269 13.266 12.3435 13.4612 12.5388C13.6565 12.734 13.9731 12.734 14.1683 12.5388L13.4612 11.8317ZM19.5 7C19.5 6.72386 19.2761 6.5 19 6.5L14.5 6.5C14.2239 6.5 14 6.72386 14 7C14 7.27614 14.2239 7.5 14.5 7.5L18.5 7.5L18.5 11.5C18.5 11.7761 18.7239 12 19 12C19.2761 12 19.5 11.7761 19.5 11.5L19.5 7ZM11.8317 13.4612L6.64645 18.6464L7.35355 19.3536L12.5388 14.1683L11.8317 13.4612ZM14.1683 12.5388L19.3536 7.35355L18.6464 6.64645L13.4612 11.8317L14.1683 12.5388Z" fill="#514642"/>
<rect x="0.5" y="0.5" width="25" height="25" rx="12.5" stroke="#FDF8F5"/>
</svg>
