<svg width="28" height="28" viewBox="0 0 28 28" fill="none" xmlns="http://www.w3.org/2000/svg">
<path d="M13.6889 0C11.8265 0 10.0404 0.737498 8.72345 2.05025C7.40653 3.36301 6.66669 5.14348 6.66669 7C6.66669 8.85652 7.40653 10.637 8.72345 11.9497C10.0404 13.2625 11.8265 14 13.6889 14C15.5513 14 17.3375 13.2625 18.6544 11.9497C19.9713 10.637 20.7111 8.85652 20.7111 7C20.7111 5.14348 19.9713 3.36301 18.6544 2.05025C17.3375 0.737498 15.5513 0 13.6889 0ZM8.42225 7C8.42225 5.60761 8.97713 4.27226 9.96482 3.28769C10.9525 2.30312 12.2921 1.75 13.6889 1.75C15.0857 1.75 16.4253 2.30312 17.413 3.28769C18.4007 4.27226 18.9556 5.60761 18.9556 7C18.9556 8.39239 18.4007 9.72775 17.413 10.7123C16.4253 11.6969 15.0857 12.25 13.6889 12.25C12.2921 12.25 10.9525 11.6969 9.96482 10.7123C8.97713 9.72775 8.42225 8.39239 8.42225 7ZM4.92694 15.75C4.46459 15.7482 4.00642 15.8373 3.57871 16.0124C3.151 16.1874 2.76217 16.4449 2.4345 16.7701C2.10684 17.0952 1.84679 17.4817 1.66927 17.9072C1.49175 18.3328 1.40025 18.7891 1.40002 19.25C1.40002 22.2093 2.8624 24.4405 5.14814 25.8948C7.39876 27.3245 10.4324 28 13.6889 28C16.9455 28 19.9791 27.3245 22.2297 25.8948C24.5154 24.4423 25.9778 22.2075 25.9778 19.25C25.9778 18.3217 25.6079 17.4315 24.9494 16.7751C24.291 16.1188 23.3979 15.75 22.4667 15.75H4.92694ZM3.15558 19.25C3.15558 18.2823 3.94207 17.5 4.92694 17.5H22.4667C22.9323 17.5 23.3788 17.6844 23.7081 18.0126C24.0373 18.3408 24.2222 18.7859 24.2222 19.25C24.2222 21.5408 23.1303 23.247 21.2852 24.4178C19.4068 25.613 16.7348 26.25 13.6889 26.25C10.643 26.25 7.97107 25.613 6.09262 24.4178C4.24929 23.2453 3.15558 21.5425 3.15558 19.25Z" fill="#514642"/>
</svg>
