<svg width="28" height="28" viewBox="0 0 28 28" fill="none" xmlns="http://www.w3.org/2000/svg">
<path d="M25.7946 19.8089C25.1222 18.6506 24.1226 15.3733 24.1226 11.0927C24.1226 8.52205 23.1014 6.05667 21.2837 4.23893C19.466 2.42119 17.0006 1.39999 14.4299 1.39999C11.8592 1.39999 9.39386 2.42119 7.57612 4.23893C5.75839 6.05667 4.73719 8.52205 4.73719 11.0927C4.73719 15.3745 3.73642 18.6506 3.06398 19.8089C2.89226 20.1034 2.80123 20.4379 2.80006 20.7788C2.79889 21.1197 2.88763 21.4548 3.05732 21.7505C3.22701 22.0461 3.47166 22.2918 3.76659 22.4627C4.06152 22.6336 4.39631 22.7237 4.73719 22.724H9.68169C9.90532 23.8183 10.5 24.8017 11.3652 25.508C12.2304 26.2142 13.313 26.6 14.4299 26.6C15.5468 26.6 16.6294 26.2142 17.4946 25.508C18.3598 24.8017 18.9545 23.8183 19.1781 22.724H24.1226C24.4634 22.7235 24.7981 22.6333 25.0928 22.4622C25.3876 22.2912 25.6321 22.0455 25.8016 21.7499C25.9712 21.4543 26.0598 21.1193 26.0586 20.7785C26.0573 20.4377 25.9663 20.1033 25.7946 19.8089ZM14.4299 24.6625C13.8288 24.6624 13.2424 24.4758 12.7516 24.1287C12.2608 23.7815 11.8897 23.2908 11.6893 22.724H17.1705C16.9701 23.2908 16.599 23.7815 16.1082 24.1287C15.6174 24.4758 15.0311 24.6624 14.4299 24.6625ZM4.73719 20.7854C5.67012 19.1813 6.67574 15.4641 6.67574 11.0927C6.67574 9.03618 7.49269 7.06388 8.94688 5.60969C10.4011 4.1555 12.3734 3.33854 14.4299 3.33854C16.4865 3.33854 18.4588 4.1555 19.913 5.60969C21.3671 7.06388 22.1841 9.03618 22.1841 11.0927C22.1841 15.4605 23.1873 19.1777 24.1226 20.7854H4.73719Z" fill="#514642"/>
</svg>
