<svg width="28" height="28" viewBox="0 0 28 28" fill="none" xmlns="http://www.w3.org/2000/svg">
<path d="M1.16663 14.5556C1.16663 8.79399 1.16663 5.91322 3.04543 4.12266C4.92679 2.33333 7.95033 2.33333 14 2.33333C20.0496 2.33333 23.0744 2.33333 24.9532 4.12266C26.8333 5.91444 26.8333 8.79399 26.8333 14.5556" stroke="#514642" stroke-width="1.7"/>
<path d="M1.16663 17C1.16663 13.5778 1.16663 11.8667 1.86604 10.5589C2.48122 9.40905 3.46281 8.47421 4.67013 7.88833C6.04329 7.22221 7.83996 7.22221 11.4333 7.22221H16.5666C20.16 7.22221 21.9566 7.22221 23.3298 7.88833C24.5371 8.47421 25.5187 9.40905 26.1339 10.5589C26.8333 11.8667 26.8333 13.5778 26.8333 17C26.8333 20.4222 26.8333 22.1333 26.1339 23.4411C25.5187 24.5909 24.5371 25.5258 23.3298 26.1117C21.9566 26.7778 20.16 26.7778 16.5666 26.7778H11.4333C7.83996 26.7778 6.04329 26.7778 4.67013 26.1117C3.46281 25.5258 2.48122 24.5909 1.86604 23.4411C1.16663 22.1333 1.16663 20.4222 1.16663 17Z" stroke="#514642" stroke-width="1.7"/>
<path d="M14.2083 13.3333V20.6667M14.2083 20.6667L17.4167 17.6111M14.2083 20.6667L11 17.6111" stroke="#514642" stroke-width="1.7" stroke-linecap="round" stroke-linejoin="round"/>
</svg>
