<svg width="29" height="30" viewBox="0 0 29 30" fill="none" xmlns="http://www.w3.org/2000/svg">
<path fill-rule="evenodd" clip-rule="evenodd" d="M2.73413 6.52587C2.73413 4.43179 4.43172 2.73421 6.5258 2.73421H18.0324C18.5157 2.73421 18.9074 2.34246 18.9074 1.85921C18.9074 1.37596 18.5157 0.984207 18.0324 0.984207H6.5258C3.46522 0.984207 0.984131 3.46529 0.984131 6.52587V23.4741C0.984131 26.5347 3.46522 29.0158 6.52579 29.0158H18.0324C18.5157 29.0158 18.9074 28.624 18.9074 28.1408C18.9074 27.6575 18.5157 27.2658 18.0324 27.2658H6.52579C4.43172 27.2658 2.73413 25.5682 2.73413 23.4741V6.52587ZM24.7161 14.3813L19.1477 8.81282C18.8059 8.47111 18.2519 8.47111 17.9102 8.81282C17.5685 9.15453 17.5685 9.70854 17.9102 10.0503L21.985 14.125H9.94577C9.46252 14.125 9.07077 14.5168 9.07077 15C9.07077 15.4832 9.46252 15.875 9.94577 15.875H21.985L17.9102 19.9497C17.5685 20.2915 17.5685 20.8455 17.9102 21.1872C18.2519 21.5289 18.8059 21.5289 19.1477 21.1872L24.7161 15.6187C25.0578 15.277 25.0578 14.723 24.7161 14.3813Z" fill="#514642"/>
</svg>
