<svg width="28" height="28" viewBox="0 0 28 28" fill="none" xmlns="http://www.w3.org/2000/svg">
<g clip-path="url(#clip0_1345_27753)">
<path d="M4.76471 7.35294C4.76471 5.66804 5.43403 4.05214 6.62544 2.86073C7.81685 1.66933 9.43274 1 11.1176 1C12.8026 1 14.4184 1.66933 15.6099 2.86073C16.8013 4.05214 17.4706 5.66804 17.4706 7.35294C17.4706 9.03785 16.8013 10.6537 15.6099 11.8451C14.4184 13.0366 12.8026 13.7059 11.1176 13.7059C9.43274 13.7059 7.81685 13.0366 6.62544 11.8451C5.43403 10.6537 4.76471 9.03785 4.76471 7.35294ZM11.1176 2.58824C9.85397 2.58824 8.64205 3.09023 7.74849 3.98379C6.85494 4.87734 6.35294 6.08926 6.35294 7.35294C6.35294 8.61662 6.85494 9.82854 7.74849 10.7221C8.64205 11.6157 9.85397 12.1176 11.1176 12.1176C12.3813 12.1176 13.5932 11.6157 14.4868 10.7221C15.3804 9.82854 15.8824 8.61662 15.8824 7.35294C15.8824 6.08926 15.3804 4.87734 14.4868 3.98379C13.5932 3.09023 12.3813 2.58824 11.1176 2.58824ZM0 18.4706C0 16.7029 1.43418 15.2941 3.19076 15.2941H13.1141C12.7095 15.784 12.3597 16.3166 12.0706 16.8824H3.19076C2.29976 16.8824 1.58824 17.5923 1.58824 18.4706C1.58824 20.5496 2.57612 22.0981 4.24535 23.1606C5.94476 24.2454 8.36206 24.8235 11.1176 24.8235C11.4353 24.8235 11.7498 24.8156 12.0579 24.7997C12.3326 25.3429 12.663 25.8511 13.0394 26.3212C12.4121 26.3816 11.7688 26.4118 11.1176 26.4118C8.17147 26.4118 5.427 25.7987 3.39088 24.5011C1.323 23.1829 0 21.1547 0 18.4706ZM27 20.8529C27 22.7485 26.247 24.5663 24.9067 25.9067C23.5663 27.247 21.7485 28 19.8529 28C17.9574 28 16.1395 27.247 14.7992 25.9067C13.4589 24.5663 12.7059 22.7485 12.7059 20.8529C12.7059 18.9574 13.4589 17.1395 14.7992 15.7992C16.1395 14.4589 17.9574 13.7059 19.8529 13.7059C21.7485 13.7059 23.5663 14.4589 24.9067 15.7992C26.247 17.1395 27 18.9574 27 20.8529ZM23.5916 17.9084C23.5179 17.8344 23.4303 17.7757 23.3338 17.7357C23.2373 17.6957 23.1339 17.6751 23.0294 17.6751C22.925 17.6751 22.8215 17.6957 22.7251 17.7357C22.6286 17.7757 22.5409 17.8344 22.4672 17.9084L18.2647 22.1124L17.2387 21.0848C17.0896 20.9357 16.8873 20.8519 16.6765 20.8519C16.4656 20.8519 16.2633 20.9357 16.1142 21.0848C15.9651 21.2339 15.8814 21.4362 15.8814 21.6471C15.8814 21.8579 15.9651 22.0602 16.1142 22.2093L17.7025 23.7975C17.7762 23.8715 17.8639 23.9302 17.9603 23.9702C18.0568 24.0102 18.1603 24.0308 18.2647 24.0308C18.3692 24.0308 18.4726 24.0102 18.5691 23.9702C18.6655 23.9302 18.7532 23.8715 18.8269 23.7975L23.5916 19.0328C23.6656 18.9591 23.7243 18.8714 23.7643 18.7749C23.8043 18.6785 23.825 18.575 23.825 18.4706C23.825 18.3661 23.8043 18.2627 23.7643 18.1662C23.7243 18.0698 23.6656 17.9821 23.5916 17.9084Z" fill="#514642"/>
</g>
<defs>
<clipPath id="clip0_1345_27753">
<rect width="28" height="28" fill="white"/>
</clipPath>
</defs>
</svg>
