<svg width="24" height="24" viewBox="0 0 24 24" fill="none" xmlns="http://www.w3.org/2000/svg">
<g clip-path="url(#clip0_704_2651)">
<path fill-rule="evenodd" clip-rule="evenodd" d="M12.4381 2.77799C12.2936 2.7319 12.1369 2.74263 12.0001 2.80799C11.9323 2.83939 11.8721 2.88517 11.8237 2.94216C11.7754 2.99914 11.74 3.06597 11.7201 3.13799L11.2441 4.97199C11.0778 5.61296 10.8361 6.23194 10.5241 6.81599C10.0391 7.72299 9.30608 8.41999 8.62608 9.00599L7.18808 10.246C7.07808 10.3409 6.99216 10.4605 6.9374 10.5951C6.88264 10.7296 6.8606 10.8753 6.87308 11.02L7.68508 20.413C7.70483 20.6411 7.80931 20.8536 7.97793 21.0085C8.14655 21.1634 8.36709 21.2496 8.59608 21.25H13.2451C16.3811 21.25 19.0241 19.068 19.5311 16.137L20.2361 12.057C20.259 11.9255 20.2528 11.7906 20.2181 11.6617C20.1834 11.5329 20.1209 11.4132 20.0351 11.311C19.9493 11.2087 19.8422 11.1265 19.7213 11.0701C19.6003 11.0136 19.4685 10.9842 19.3351 10.984H14.1541C13.1771 10.984 12.4341 10.108 12.5921 9.14399L13.2551 5.09999C13.3459 4.54609 13.32 3.97932 13.1791 3.43599C13.1393 3.29216 13.0638 3.16072 12.9596 3.0539C12.8554 2.94707 12.7259 2.86833 12.5831 2.82499L12.4381 2.77799ZM11.3481 1.45699C11.8317 1.22434 12.3861 1.18605 12.8971 1.34999L13.0421 1.39699C13.8191 1.64699 14.4251 2.26699 14.6311 3.05899C14.8241 3.80499 14.8601 4.58299 14.7351 5.34299L14.0721 9.38699C14.07 9.39892 14.0706 9.41115 14.0738 9.42283C14.077 9.4345 14.0827 9.44534 14.0905 9.45458C14.0983 9.46382 14.1081 9.47124 14.119 9.47632C14.13 9.4814 14.142 9.48402 14.1541 9.48399H19.3341C20.8341 9.48399 21.9701 10.836 21.7141 12.313L21.0091 16.393C20.3711 20.081 17.0711 22.75 13.2451 22.75H8.59608C7.99167 22.7495 7.40941 22.5225 6.96418 22.1137C6.51896 21.7049 6.24311 21.1442 6.19108 20.542L5.37808 11.149C5.34503 10.7675 5.40304 10.3837 5.54733 10.029C5.69163 9.67435 5.91809 9.35903 6.20808 9.10899L7.64808 7.86899C8.30308 7.30499 8.85408 6.758 9.20008 6.10899C9.45698 5.6297 9.65572 5.12143 9.79208 4.59499L10.2681 2.76199C10.3425 2.47909 10.4777 2.2158 10.6642 1.99043C10.8507 1.76506 11.0841 1.58303 11.3481 1.45699ZM2.96808 9.48499C3.16134 9.47654 3.35039 9.54309 3.49574 9.67074C3.64109 9.79839 3.7315 9.97726 3.74808 10.17L4.71808 21.406C4.73451 21.5733 4.71666 21.7422 4.66562 21.9024C4.61458 22.0626 4.53142 22.2107 4.42122 22.3377C4.31102 22.4647 4.17609 22.5678 4.02468 22.6409C3.87327 22.714 3.70855 22.7554 3.54058 22.7627C3.37261 22.77 3.20492 22.743 3.04775 22.6833C2.89058 22.6236 2.74723 22.5325 2.62646 22.4155C2.50568 22.2985 2.41002 22.1582 2.3453 22.003C2.28059 21.8478 2.24819 21.6811 2.25008 21.513V10.234C2.2499 10.0405 2.32451 9.85443 2.45832 9.71466C2.59212 9.5749 2.77476 9.49325 2.96808 9.48499Z" fill="#0A0605"/>
</g>
<defs>
<clipPath id="clip0_704_2651">
<rect width="24" height="24" fill="white"/>
</clipPath>
</defs>
</svg>
