<svg width="28" height="28" viewBox="0 0 28 28" fill="none" xmlns="http://www.w3.org/2000/svg">
<g clip-path="url(#clip0_1345_27749)">
<path fill-rule="evenodd" clip-rule="evenodd" d="M16.597 5.38976C19.6954 8.48821 19.6954 13.5118 16.597 16.6102C13.4985 19.7087 8.47495 19.7087 5.3765 16.6102C2.27805 13.5118 2.27805 8.48821 5.3765 5.38976C8.47495 2.29132 13.4985 2.29132 16.597 5.38976ZM18.6372 17.2689C21.8284 13.384 21.6093 7.63588 17.9801 4.00663C14.1178 0.144302 7.8557 0.144302 3.99337 4.00663C0.131037 7.86896 0.131037 14.131 3.99337 17.9934C7.6226 21.6226 13.3707 21.8416 17.2556 18.6505C17.2663 18.6621 17.2772 18.6736 17.2885 18.6849L23.1163 24.5127C23.4983 24.8947 24.1175 24.8947 24.4994 24.5127C24.8814 24.1308 24.8814 23.5116 24.4994 23.1296L18.6716 17.3018C18.6604 17.2905 18.6489 17.2796 18.6372 17.2689Z" fill="#514642"/>
</g>
<defs>
<clipPath id="clip0_1345_27749">
<rect width="28" height="28" fill="white"/>
</clipPath>
</defs>
</svg>
