<svg width="20" height="20" viewBox="0 0 20 20" fill="none" xmlns="http://www.w3.org/2000/svg">
<path fill-rule="evenodd" clip-rule="evenodd" d="M3.81282 16.1872C5.45376 17.8281 7.67936 18.75 10 18.75C12.3206 18.75 14.5462 17.8281 16.1872 16.1872C17.8281 14.5462 18.75 12.3206 18.75 10C18.75 7.67936 17.8281 5.45376 16.1872 3.81282C14.5462 2.17187 12.3206 1.25 10 1.25C7.67936 1.25 5.45376 2.17187 3.81282 3.81282C2.17187 5.45376 1.25 7.67936 1.25 10C1.25 12.3206 2.17187 14.5462 3.81282 16.1872ZM17.0711 17.0711C15.1957 18.9464 12.6522 20 10 20C7.34784 20 4.8043 18.9464 2.92893 17.0711C1.05357 15.1957 0 12.6522 0 10C0 7.34784 1.05357 4.8043 2.92893 2.92893C4.8043 1.05357 7.34784 0 10 0C12.6522 0 15.1957 1.05357 17.0711 2.92893C18.9464 4.8043 20 7.34784 20 10C20 12.6522 18.9464 15.1957 17.0711 17.0711ZM6.58816 7.3509C6.57372 7.31316 6.56716 7.27287 6.56887 7.2325C6.68762 5.1125 8.42262 4.375 10.0064 4.375C11.7526 4.375 13.3476 5.2875 13.3476 7.17625C13.3476 8.525 12.5539 9.1675 11.7926 9.74625C10.8714 10.445 10.5301 10.7063 10.5301 11.6038V11.735C10.5301 11.8179 10.4972 11.8974 10.4386 11.956C10.38 12.0146 10.3005 12.0475 10.2176 12.0475H9.20387C9.12185 12.0475 9.04311 12.0153 8.98465 11.9577C8.92618 11.9002 8.89268 11.822 8.89137 11.74L8.88762 11.4688C8.84012 10.31 9.50637 9.59625 10.3476 8.985C11.0864 8.43 11.5539 8.065 11.5539 7.27125C11.5539 6.24 10.7689 5.81125 9.91137 5.81125C8.90887 5.81125 8.34637 6.40875 8.23387 7.22875C8.21137 7.4 8.07387 7.54125 7.90137 7.54125H6.87012C6.82972 7.54197 6.7896 7.53442 6.75223 7.51906C6.71486 7.5037 6.68103 7.48085 6.65281 7.45194C6.6246 7.42302 6.60259 7.38863 6.58816 7.3509ZM9.77762 15.595C9.04637 15.595 8.51512 15.1025 8.51512 14.4362C8.51512 13.7463 9.04637 13.2613 9.77637 13.2613C10.5376 13.2613 11.0626 13.7463 11.0626 14.4362C11.0626 15.1025 10.5389 15.595 9.77762 15.595Z" fill="#F46E38"/>
</svg>
