<svg width="25" height="26" viewBox="0 0 25 26" fill="none" xmlns="http://www.w3.org/2000/svg">
<path fill-rule="evenodd" clip-rule="evenodd" d="M2.48645 5.73648C2.48645 3.94155 3.94152 2.48648 5.73645 2.48648H15.5993C16.0135 2.48648 16.3493 2.15069 16.3493 1.73648C16.3493 1.32227 16.0135 0.986481 15.5993 0.986481H5.73645C3.1131 0.986481 0.98645 3.11312 0.98645 5.73648V20.2636C0.98645 22.8869 3.11309 25.0136 5.73645 25.0136H15.5993C16.0135 25.0136 16.3493 24.6778 16.3493 24.2636C16.3493 23.8493 16.0135 23.5136 15.5993 23.5136H5.73645C3.94152 23.5136 2.48645 22.0585 2.48645 20.2636V5.73648ZM21.3282 12.4697L16.5552 7.69672C16.2623 7.40382 15.7874 7.40382 15.4945 7.69672C15.2016 7.98961 15.2016 8.46448 15.4945 8.75738L18.9872 12.25H8.66786C8.25364 12.25 7.91786 12.5858 7.91786 13C7.91786 13.4142 8.25364 13.75 8.66786 13.75H18.9872L15.4945 17.2427C15.2016 17.5356 15.2016 18.0104 15.4945 18.3033C15.7874 18.5962 16.2623 18.5962 16.5552 18.3033L21.3282 13.5303C21.621 13.2375 21.621 12.7626 21.3282 12.4697Z" fill="#F46E38"/>
</svg>
