<svg width="28" height="28" viewBox="0 0 28 28" fill="none" xmlns="http://www.w3.org/2000/svg">
<path fill-rule="evenodd" clip-rule="evenodd" d="M21.9744 1.56408C21.7574 1.34741 21.4668 1.27002 21.1201 1.27002C20.7735 1.27002 20.556 1.34741 20.3391 1.56408C20.3391 1.56408 6.30166 15.5999 6.15666 15.745C6.01166 15.89 5.85583 16.2695 5.85583 16.2695L4.31309 22.1782C4.26216 22.3734 4.26319 22.5786 4.31607 22.7734C4.36894 22.9681 4.47184 23.1457 4.61453 23.2883C4.75722 23.431 4.93475 23.5339 5.1295 23.5868C5.32424 23.6397 5.52943 23.6407 5.7247 23.5898L11.6303 22.047C11.8294 21.9949 12.1564 21.7447 12.1564 21.7447L26.3373 7.5638C26.5539 7.34685 26.6401 7.05277 26.6401 6.74615C26.6401 6.50002 26.5539 6.14545 26.3373 5.9285L21.9744 1.56408ZM7.49276 17.0233C7.4976 17.008 7.50605 16.9941 7.51741 16.9827L20.8457 3.65448C21.0413 3.45886 21.3586 3.45927 21.5537 3.6554L24.2784 6.39422C24.4721 6.58899 24.4725 6.90362 24.2791 7.09878L11.0171 20.4829C11.006 20.4941 10.9922 20.5026 10.9772 20.5075L6.23507 22.0572C6.08032 22.1078 5.9332 21.9622 5.98223 21.8069L7.49276 17.0233Z" fill="#F46E38"/>
<path d="M4.80993 25.2583C4.53989 25.2583 4.28091 25.3321 4.08997 25.4633C3.89902 25.5946 3.79175 25.7726 3.79175 25.9583C3.79175 26.144 3.89902 26.322 4.08997 26.4533C4.28091 26.5846 4.53989 26.6583 4.80993 26.6583H25.1736C25.4436 26.6583 25.7026 26.5846 25.8935 26.4533C26.0845 26.322 26.1917 26.144 26.1917 25.9583C26.1917 25.7726 26.0845 25.5946 25.8935 25.4633C25.7026 25.3321 25.4436 25.2583 25.1736 25.2583H4.80993Z" fill="#F46E38"/>
</svg>
