<svg width="24" height="24" viewBox="0 0 24 24" fill="none" xmlns="http://www.w3.org/2000/svg">
<path d="M1 12.4762C1 7.53771 1 5.06848 2.6104 3.53371C4.223 2 6.8146 2 12 2C17.1854 2 19.7781 2 21.3885 3.53371C23 5.06952 23 7.53771 23 12.4762" stroke="#F46E38" stroke-width="1.5"/>
<path d="M1 14.5714C1 11.6381 1 10.1714 1.5995 9.05049C2.1268 8.06492 2.96815 7.26363 4.003 6.76144C5.18 6.19049 6.72 6.19049 9.8 6.19049H14.2C17.28 6.19049 18.82 6.19049 19.997 6.76144C21.0318 7.26363 21.8732 8.06492 22.4005 9.05049C23 10.1714 23 11.6381 23 14.5714C23 17.5048 23 18.9714 22.4005 20.0924C21.8732 21.078 21.0318 21.8793 19.997 22.3814C18.82 22.9524 17.28 22.9524 14.2 22.9524H9.8C6.72 22.9524 5.18 22.9524 4.003 22.3814C2.96815 21.8793 2.1268 21.078 1.5995 20.0924C1 18.9714 1 17.5048 1 14.5714Z" stroke="#F46E38" stroke-width="1.5"/>
<path fill-rule="evenodd" clip-rule="evenodd" d="M12.131 10.6786C12.5452 10.6786 12.881 11.0143 12.881 11.4286V15.9643L14.3637 14.5521C14.6637 14.2665 15.1384 14.278 15.4241 14.578C15.7098 14.8779 15.6982 15.3527 15.3982 15.6383L12.6482 18.2574C12.3586 18.5332 11.9034 18.5332 11.6137 18.2574L8.86374 15.6383C8.56379 15.3527 8.55221 14.8779 8.83788 14.578C9.12354 14.278 9.59828 14.2665 9.89822 14.5521L11.381 15.9643V11.4286C11.381 11.0143 11.7168 10.6786 12.131 10.6786Z" fill="#F46E38"/>
</svg>
