<svg width="24" height="24" viewBox="0 0 24 24" fill="none" xmlns="http://www.w3.org/2000/svg">
<g clip-path="url(#clip0_1350_38815)">
<path fill-rule="evenodd" clip-rule="evenodd" d="M13.8939 4.16359C16.565 6.83467 16.565 11.1653 13.8939 13.8364C11.2229 16.5075 6.8922 16.5075 4.22112 13.8364C1.55004 11.1653 1.55004 6.83467 4.22112 4.16359C6.8922 1.49251 11.2229 1.49252 13.8939 4.16359ZM15.6527 14.4043C18.4038 11.0551 18.215 6.09989 15.0863 2.97124C11.7567 -0.35836 6.35836 -0.35836 3.02876 2.97124C-0.30083 6.30083 -0.30083 11.6992 3.02876 15.0288C6.15741 18.1574 11.1126 18.3462 14.4618 15.5952C14.4709 15.6053 14.4804 15.6152 14.4901 15.6249L19.5141 20.6489C19.8433 20.9782 20.3772 20.9782 20.7064 20.6489C21.0357 20.3197 21.0357 19.7858 20.7064 19.4566L15.6824 14.4326C15.6727 14.4229 15.6628 14.4134 15.6527 14.4043Z" fill="#F46E38"/>
</g>
<defs>
<clipPath id="clip0_1350_38815">
<rect width="24" height="24" fill="white"/>
</clipPath>
</defs>
</svg>
