<svg width="24" height="24" viewBox="0 0 24 24" fill="none" xmlns="http://www.w3.org/2000/svg">
<path d="M4.05882 6.41177C4.05882 4.97648 4.62899 3.59997 5.64389 2.58507C6.6588 1.57017 8.0353 1 9.47059 1C10.9059 1 12.2824 1.57017 13.2973 2.58507C14.3122 3.59997 14.8824 4.97648 14.8824 6.41177C14.8824 7.84705 14.3122 9.22356 13.2973 10.2385C12.2824 11.2534 10.9059 11.8235 9.47059 11.8235C8.0353 11.8235 6.6588 11.2534 5.64389 10.2385C4.62899 9.22356 4.05882 7.84705 4.05882 6.41177ZM9.47059 2.35294C8.39412 2.35294 7.36174 2.78057 6.60057 3.54174C5.83939 4.30292 5.41177 5.3353 5.41177 6.41177C5.41177 7.48823 5.83939 8.52061 6.60057 9.28179C7.36174 10.043 8.39412 10.4706 9.47059 10.4706C10.5471 10.4706 11.5794 10.043 12.3406 9.28179C13.1018 8.52061 13.5294 7.48823 13.5294 6.41177C13.5294 5.3353 13.1018 4.30292 12.3406 3.54174C11.5794 2.78057 10.5471 2.35294 9.47059 2.35294ZM0 15.8824C0 14.3765 1.22171 13.1765 2.71806 13.1765H11.1712C10.8266 13.5938 10.5286 14.0475 10.2824 14.5294H2.71806C1.95906 14.5294 1.35294 15.1342 1.35294 15.8824C1.35294 17.6534 2.19447 18.9725 3.61641 19.8776C5.06406 20.8016 7.12324 21.2941 9.47059 21.2941C9.74118 21.2941 10.0091 21.2874 10.2715 21.2738C10.5056 21.7365 10.787 22.1695 11.1076 22.5699C10.5732 22.6214 10.0253 22.6471 9.47059 22.6471C6.96088 22.6471 4.623 22.1248 2.88853 21.0195C1.127 19.8965 0 18.1688 0 15.8824ZM23 17.9118C23 19.5265 22.3586 21.075 21.2168 22.2168C20.075 23.3586 18.5265 24 16.9118 24C15.2971 24 13.7485 23.3586 12.6067 22.2168C11.465 21.075 10.8235 19.5265 10.8235 17.9118C10.8235 16.2971 11.465 14.7485 12.6067 13.6067C13.7485 12.465 15.2971 11.8235 16.9118 11.8235C18.5265 11.8235 20.075 12.465 21.2168 13.6067C22.3586 14.7485 23 16.2971 23 17.9118ZM20.0966 15.4034C20.0338 15.3404 19.9591 15.2904 19.8769 15.2563C19.7947 15.2222 19.7066 15.2047 19.6176 15.2047C19.5287 15.2047 19.4406 15.2222 19.3584 15.2563C19.2762 15.2904 19.2015 15.3404 19.1387 15.4034L15.5588 18.9846L14.6848 18.1093C14.5578 17.9823 14.3855 17.9109 14.2059 17.9109C14.0262 17.9109 13.854 17.9823 13.7269 18.1093C13.5999 18.2363 13.5286 18.4086 13.5286 18.5882C13.5286 18.7679 13.5999 18.9402 13.7269 19.0672L15.0799 20.4201C15.1427 20.4831 15.2174 20.5331 15.2996 20.5672C15.3817 20.6013 15.4698 20.6189 15.5588 20.6189C15.6478 20.6189 15.7359 20.6013 15.8181 20.5672C15.9003 20.5331 15.9749 20.4831 16.0378 20.4201L20.0966 16.3613C20.1596 16.2985 20.2096 16.2238 20.2437 16.1416C20.2778 16.0594 20.2953 15.9713 20.2953 15.8824C20.2953 15.7934 20.2778 15.7053 20.2437 15.6231C20.2096 15.5409 20.1596 15.4663 20.0966 15.4034Z" fill="#F46E38"/>
</svg>
