<svg width="24" height="24" viewBox="0 0 24 24" fill="none" xmlns="http://www.w3.org/2000/svg">
<path fill-rule="evenodd" clip-rule="evenodd" d="M18.8352 1.34062C18.6492 1.15489 18.4 1.08856 18.1029 1.08856C17.8058 1.08856 17.6194 1.15489 17.4335 1.34062C17.4335 1.34062 5.40139 13.3713 5.2771 13.4956C5.15282 13.62 5.01925 13.9452 5.01925 13.9452L3.6969 19.0098C3.65325 19.1772 3.65413 19.3531 3.69945 19.52C3.74477 19.6869 3.83297 19.8391 3.95528 19.9614C4.07758 20.0837 4.22975 20.1719 4.39668 20.2172C4.5636 20.2626 4.73948 20.2634 4.90685 20.2198L9.9688 18.8974C10.1395 18.8527 10.4197 18.6383 10.4197 18.6383L22.5748 6.48323C22.7605 6.29728 22.8344 6.04521 22.8344 5.78239C22.8344 5.57142 22.7605 5.2675 22.5748 5.08154L18.8352 1.34062ZM6.42128 14.5947C6.42612 14.5794 6.43457 14.5655 6.44593 14.5541L17.817 3.18303C18.0127 2.98741 18.3299 2.98782 18.5251 3.18394L20.76 5.43045C20.9538 5.62523 20.9541 5.93986 20.7607 6.13502L9.44565 17.5543C9.43447 17.5655 9.42077 17.574 9.40568 17.5789L5.39718 18.8889C5.24243 18.9395 5.09531 18.7938 5.14434 18.6386L6.42128 14.5947Z" fill="#F46E38"/>
<path d="M4.12273 21.65C3.89127 21.65 3.66928 21.7132 3.50562 21.8257C3.34195 21.9382 3.25 22.0908 3.25 22.25C3.25 22.4091 3.34195 22.5617 3.50562 22.6742C3.66928 22.7867 3.89127 22.85 4.12273 22.85H21.5773C21.8087 22.85 22.0307 22.7867 22.1944 22.6742C22.3581 22.5617 22.45 22.4091 22.45 22.25C22.45 22.0908 22.3581 21.9382 22.1944 21.8257C22.0307 21.7132 21.8087 21.65 21.5773 21.65H4.12273Z" fill="#F46E38"/>
</svg>
