<svg width="25" height="26" viewBox="0 0 25 26" fill="none" xmlns="http://www.w3.org/2000/svg">
<path fill-rule="evenodd" clip-rule="evenodd" d="M2.48645 5.73648C2.48645 3.94155 3.94152 2.48648 5.73645 2.48648H15.5993C16.0135 2.48648 16.3493 2.15069 16.3493 1.73648C16.3493 1.32227 16.0135 0.986481 15.5993 0.986481H5.73645C3.1131 0.986481 0.98645 3.11312 0.98645 5.73648V20.2636C0.98645 22.8869 3.11309 25.0136 5.73645 25.0136H15.5993C16.0135 25.0136 16.3493 24.6778 16.3493 24.2636C16.3493 23.8493 16.0135 23.5136 15.5993 23.5136H5.73645C3.94152 23.5136 2.48645 22.0585 2.48645 20.2636V5.73648ZM8.13753 12.4697C7.84464 12.7626 7.84464 13.2375 8.13753 13.5303L12.9105 18.3033C13.2034 18.5962 13.6783 18.5962 13.9712 18.3033C14.2641 18.0104 14.2641 17.5356 13.9712 17.2427L10.4785 13.75H20.7978C21.212 13.75 21.5478 13.4142 21.5478 13C21.5478 12.5858 21.212 12.25 20.7978 12.25H10.4785L13.9712 8.75738C14.2641 8.46448 14.2641 7.98961 13.9712 7.69672C13.6783 7.40382 13.2034 7.40382 12.9105 7.69672L8.13753 12.4697Z" fill="#F46E38"/>
</svg>
