<svg width="28" height="28" viewBox="0 0 28 28" fill="none" xmlns="http://www.w3.org/2000/svg">
<g clip-path="url(#clip0_1350_38798)">
<path fill-rule="evenodd" clip-rule="evenodd" d="M14 3.0349L26.5465 9.30814C27.0425 9.55617 27.6457 9.3551 27.8938 8.85905C28.1418 8.36299 27.9407 7.7598 27.4447 7.51177L14.7974 1.18812C14.5499 1.06458 14.2766 1 14 1C13.7234 1 13.4506 1.06431 13.2032 1.18785L0.55533 7.51177C0.0592751 7.7598 -0.141791 8.36299 0.106237 8.85905C0.354264 9.3551 0.957462 9.55617 1.45352 9.30814L14 3.0349ZM3.60354 10.3857C4.15815 10.3857 4.60774 10.8353 4.60774 11.3899V22.7051C4.60774 23.1281 4.77578 23.5338 5.07488 23.8329C5.37399 24.132 5.77966 24.3 6.20265 24.3H21.7973C22.2203 24.3 22.626 24.132 22.9251 23.8329C23.2242 23.5338 23.3923 23.1281 23.3923 22.7051V11.3899C23.3923 10.8353 23.8419 10.3857 24.3965 10.3857C24.9511 10.3857 25.4007 10.8353 25.4007 11.3899V22.7051C25.4007 23.6607 25.021 24.5773 24.3453 25.253C23.6695 25.9288 22.753 26.3084 21.7973 26.3084H6.20265C5.24699 26.3084 4.33048 25.9288 3.65472 25.253C2.97897 24.5773 2.59934 23.6607 2.59934 22.7051V11.3899C2.59934 10.8353 3.04893 10.3857 3.60354 10.3857Z" fill="#F46E38"/>
</g>
<defs>
<clipPath id="clip0_1350_38798">
<rect width="28" height="28" fill="white"/>
</clipPath>
</defs>
</svg>
